<mxfile host="app.diagrams.net" agent="Mozilla/5.0 (Windows NT 10.0; Win64; x64) AppleWebKit/537.36 (KHTML, like Gecko) Chrome/126.0.0.0 Safari/537.36" version="24.7.5">
  <diagram name="Page-1" id="2Jfo-YCxpmQzHSEy92yM">
    <mxGraphModel dx="1985" dy="15" grid="0" gridSize="10" guides="1" tooltips="1" connect="1" arrows="1" fold="1" page="1" pageScale="1" pageWidth="850" pageHeight="1100" math="0" shadow="0">
      <root>
        <mxCell id="0" />
        <mxCell id="1" parent="0" />
        <mxCell id="USxUALuXqJRckhN38qnO-1" value="" style="group" vertex="1" connectable="0" parent="1">
          <mxGeometry x="20" y="1282" width="810" height="740" as="geometry" />
        </mxCell>
        <mxCell id="USxUALuXqJRckhN38qnO-2" value="" style="rounded=0;whiteSpace=wrap;html=1;" vertex="1" parent="USxUALuXqJRckhN38qnO-1">
          <mxGeometry x="240" width="570" height="290" as="geometry" />
        </mxCell>
        <mxCell id="USxUALuXqJRckhN38qnO-3" value="" style="sketch=0;pointerEvents=1;shadow=0;dashed=0;html=1;strokeColor=none;fillColor=#434445;aspect=fixed;labelPosition=center;verticalLabelPosition=bottom;verticalAlign=top;align=center;outlineConnect=0;shape=mxgraph.vvd.ethernet_port;" vertex="1" parent="USxUALuXqJRckhN38qnO-1">
          <mxGeometry x="190" y="90" width="90" height="90" as="geometry" />
        </mxCell>
        <mxCell id="USxUALuXqJRckhN38qnO-4" value="" style="pointerEvents=1;verticalLabelPosition=bottom;shadow=0;dashed=0;align=center;html=1;verticalAlign=top;shape=mxgraph.electrical.miscellaneous.cable_termination" vertex="1" parent="USxUALuXqJRckhN38qnO-1">
          <mxGeometry y="110" width="200" height="50" as="geometry" />
        </mxCell>
        <mxCell id="USxUALuXqJRckhN38qnO-5" value="&lt;b&gt;&lt;font style=&quot;font-size: 13px;&quot;&gt;eth0&lt;/font&gt;&lt;/b&gt;" style="text;html=1;align=center;verticalAlign=middle;resizable=0;points=[];autosize=1;strokeColor=none;fillColor=none;" vertex="1" parent="USxUALuXqJRckhN38qnO-1">
          <mxGeometry x="140" y="190" width="50" height="30" as="geometry" />
        </mxCell>
        <mxCell id="USxUALuXqJRckhN38qnO-6" style="edgeStyle=orthogonalEdgeStyle;rounded=0;orthogonalLoop=1;jettySize=auto;html=1;" edge="1" parent="USxUALuXqJRckhN38qnO-1" source="USxUALuXqJRckhN38qnO-8" target="USxUALuXqJRckhN38qnO-9">
          <mxGeometry relative="1" as="geometry" />
        </mxCell>
        <mxCell id="USxUALuXqJRckhN38qnO-7" style="edgeStyle=orthogonalEdgeStyle;rounded=0;orthogonalLoop=1;jettySize=auto;html=1;" edge="1" parent="USxUALuXqJRckhN38qnO-1" source="USxUALuXqJRckhN38qnO-8" target="USxUALuXqJRckhN38qnO-10">
          <mxGeometry relative="1" as="geometry" />
        </mxCell>
        <mxCell id="USxUALuXqJRckhN38qnO-8" value="&lt;b&gt;&lt;font style=&quot;font-size: 14px;&quot;&gt;docker0&lt;/font&gt;&lt;/b&gt;" style="ellipse;whiteSpace=wrap;html=1;aspect=fixed;fillColor=#dae8fc;strokeColor=#6c8ebf;" vertex="1" parent="USxUALuXqJRckhN38qnO-1">
          <mxGeometry x="370" y="95" width="80" height="80" as="geometry" />
        </mxCell>
        <mxCell id="USxUALuXqJRckhN38qnO-9" value="" style="shape=image;html=1;verticalAlign=top;verticalLabelPosition=bottom;labelBackgroundColor=#ffffff;imageAspect=0;aspect=fixed;image=https://cdn1.iconfinder.com/data/icons/unicons-line-vol-3/24/docker-128.png" vertex="1" parent="USxUALuXqJRckhN38qnO-1">
          <mxGeometry x="530" y="10" width="100" height="100" as="geometry" />
        </mxCell>
        <mxCell id="USxUALuXqJRckhN38qnO-10" value="" style="shape=image;html=1;verticalAlign=top;verticalLabelPosition=bottom;labelBackgroundColor=#ffffff;imageAspect=0;aspect=fixed;image=https://cdn1.iconfinder.com/data/icons/unicons-line-vol-3/24/docker-128.png" vertex="1" parent="USxUALuXqJRckhN38qnO-1">
          <mxGeometry x="530" y="140" width="100" height="100" as="geometry" />
        </mxCell>
        <mxCell id="USxUALuXqJRckhN38qnO-11" value="&lt;h2&gt;&lt;b&gt;&lt;font style=&quot;font-size: 14px;&quot;&gt;mysql&lt;/font&gt;&lt;/b&gt;&lt;/h2&gt;" style="text;html=1;align=center;verticalAlign=middle;resizable=0;points=[];autosize=1;strokeColor=none;fillColor=none;" vertex="1" parent="USxUALuXqJRckhN38qnO-1">
          <mxGeometry x="586" y="50" width="60" height="60" as="geometry" />
        </mxCell>
        <mxCell id="USxUALuXqJRckhN38qnO-12" value="&lt;h2&gt;&lt;b&gt;&lt;font style=&quot;font-size: 14px;&quot;&gt;backend&lt;/font&gt;&lt;/b&gt;&lt;/h2&gt;" style="text;html=1;align=center;verticalAlign=middle;resizable=0;points=[];autosize=1;strokeColor=none;fillColor=none;" vertex="1" parent="USxUALuXqJRckhN38qnO-1">
          <mxGeometry x="585" y="190" width="80" height="60" as="geometry" />
        </mxCell>
        <mxCell id="USxUALuXqJRckhN38qnO-13" value="" style="rounded=0;whiteSpace=wrap;html=1;fillColor=#d5e8d4;strokeColor=#82b366;gradientColor=#97d077;" vertex="1" parent="USxUALuXqJRckhN38qnO-1">
          <mxGeometry x="234" y="450" width="570" height="290" as="geometry" />
        </mxCell>
        <mxCell id="USxUALuXqJRckhN38qnO-14" style="edgeStyle=orthogonalEdgeStyle;rounded=0;orthogonalLoop=1;jettySize=auto;html=1;" edge="1" parent="USxUALuXqJRckhN38qnO-1" source="USxUALuXqJRckhN38qnO-15" target="USxUALuXqJRckhN38qnO-19">
          <mxGeometry relative="1" as="geometry" />
        </mxCell>
        <mxCell id="USxUALuXqJRckhN38qnO-15" value="" style="sketch=0;pointerEvents=1;shadow=0;dashed=0;html=1;strokeColor=none;fillColor=#434445;aspect=fixed;labelPosition=center;verticalLabelPosition=bottom;verticalAlign=top;align=center;outlineConnect=0;shape=mxgraph.vvd.ethernet_port;" vertex="1" parent="USxUALuXqJRckhN38qnO-1">
          <mxGeometry x="190" y="545" width="90" height="90" as="geometry" />
        </mxCell>
        <mxCell id="USxUALuXqJRckhN38qnO-16" value="&lt;b&gt;8080&lt;/b&gt;" style="text;html=1;align=center;verticalAlign=middle;resizable=0;points=[];autosize=1;strokeColor=none;fillColor=none;" vertex="1" parent="USxUALuXqJRckhN38qnO-1">
          <mxGeometry x="170" y="520" width="50" height="30" as="geometry" />
        </mxCell>
        <mxCell id="USxUALuXqJRckhN38qnO-17" style="edgeStyle=orthogonalEdgeStyle;rounded=0;orthogonalLoop=1;jettySize=auto;html=1;" edge="1" parent="USxUALuXqJRckhN38qnO-1" source="USxUALuXqJRckhN38qnO-18" target="USxUALuXqJRckhN38qnO-19">
          <mxGeometry relative="1" as="geometry">
            <Array as="points">
              <mxPoint x="420" y="520" />
            </Array>
          </mxGeometry>
        </mxCell>
        <mxCell id="USxUALuXqJRckhN38qnO-18" value="" style="shape=image;html=1;verticalAlign=top;verticalLabelPosition=bottom;labelBackgroundColor=#ffffff;imageAspect=0;aspect=fixed;image=https://cdn1.iconfinder.com/data/icons/unicons-line-vol-3/24/docker-128.png" vertex="1" parent="USxUALuXqJRckhN38qnO-1">
          <mxGeometry x="655" y="480" width="80" height="80" as="geometry" />
        </mxCell>
        <mxCell id="USxUALuXqJRckhN38qnO-19" value="&lt;b&gt;expense&lt;/b&gt;" style="ellipse;whiteSpace=wrap;html=1;fillColor=#f8cecc;gradientColor=#ea6b66;strokeColor=#b85450;" vertex="1" parent="USxUALuXqJRckhN38qnO-1">
          <mxGeometry x="352" y="550" width="120" height="80" as="geometry" />
        </mxCell>
        <mxCell id="USxUALuXqJRckhN38qnO-20" value="" style="endArrow=classic;html=1;rounded=0;" edge="1" parent="USxUALuXqJRckhN38qnO-1" target="USxUALuXqJRckhN38qnO-15">
          <mxGeometry width="50" height="50" relative="1" as="geometry">
            <mxPoint x="60" y="590" as="sourcePoint" />
            <mxPoint x="540" y="540" as="targetPoint" />
          </mxGeometry>
        </mxCell>
        <mxCell id="USxUALuXqJRckhN38qnO-21" value="&lt;b&gt;Backend&lt;/b&gt;" style="text;html=1;align=center;verticalAlign=middle;resizable=0;points=[];autosize=1;strokeColor=none;fillColor=none;" vertex="1" parent="USxUALuXqJRckhN38qnO-1">
          <mxGeometry x="665" y="550" width="70" height="30" as="geometry" />
        </mxCell>
        <mxCell id="USxUALuXqJRckhN38qnO-22" style="edgeStyle=orthogonalEdgeStyle;rounded=0;orthogonalLoop=1;jettySize=auto;html=1;entryX=1;entryY=0.5;entryDx=0;entryDy=0;" edge="1" parent="USxUALuXqJRckhN38qnO-1" source="USxUALuXqJRckhN38qnO-24" target="USxUALuXqJRckhN38qnO-19">
          <mxGeometry relative="1" as="geometry" />
        </mxCell>
        <mxCell id="USxUALuXqJRckhN38qnO-23" style="edgeStyle=orthogonalEdgeStyle;rounded=0;orthogonalLoop=1;jettySize=auto;html=1;" edge="1" parent="USxUALuXqJRckhN38qnO-1" source="USxUALuXqJRckhN38qnO-24" target="USxUALuXqJRckhN38qnO-18">
          <mxGeometry relative="1" as="geometry" />
        </mxCell>
        <mxCell id="USxUALuXqJRckhN38qnO-24" value="" style="shape=image;html=1;verticalAlign=top;verticalLabelPosition=bottom;labelBackgroundColor=#ffffff;imageAspect=0;aspect=fixed;image=https://cdn1.iconfinder.com/data/icons/unicons-line-vol-3/24/docker-128.png" vertex="1" parent="USxUALuXqJRckhN38qnO-1">
          <mxGeometry x="530" y="550" width="80" height="80" as="geometry" />
        </mxCell>
        <mxCell id="USxUALuXqJRckhN38qnO-25" value="&lt;b&gt;Frontend&lt;/b&gt;" style="text;html=1;align=center;verticalAlign=middle;resizable=0;points=[];autosize=1;strokeColor=none;fillColor=none;" vertex="1" parent="USxUALuXqJRckhN38qnO-1">
          <mxGeometry x="520" y="610" width="80" height="30" as="geometry" />
        </mxCell>
        <mxCell id="USxUALuXqJRckhN38qnO-26" value="&lt;b&gt;/api --&amp;gt; backend&lt;/b&gt;" style="text;html=1;align=center;verticalAlign=middle;resizable=0;points=[];autosize=1;strokeColor=none;fillColor=none;" vertex="1" parent="USxUALuXqJRckhN38qnO-1">
          <mxGeometry x="536" y="540" width="110" height="30" as="geometry" />
        </mxCell>
      </root>
    </mxGraphModel>
  </diagram>
</mxfile>
